<?xml version="1.0" standalone="no"?>
<!DOCTYPE svg PUBLIC "-//W3C//DTD SVG 20010904//EN"
 "http://www.w3.org/TR/2001/REC-SVG-20010904/DTD/svg10.dtd">
<svg version="1.0" xmlns="http://www.w3.org/2000/svg"
 width="250.000000pt" height="250.000000pt" viewBox="0 0 250.000000 250.000000"
 preserveAspectRatio="xMidYMid meet">
<metadata>
Created by potrace 1.14, written by Peter Selinger 2001-2017
</metadata>
<g transform="translate(0.000000,250.000000) scale(0.100000,-0.100000)"
fill="#000000" stroke="none">
<path d="M0 1250 l0 -1250 108 0 c91 0 111 3 132 20 14 11 28 20 32 20 10 0
80 47 238 160 142 102 365 240 384 239 6 0 31 -16 56 -34 25 -19 79 -55 120
-81 41 -26 93 -59 116 -73 57 -37 126 -59 132 -43 2 7 13 12 25 12 19 0 18 2
-9 19 -17 10 -46 22 -65 26 -19 4 -38 10 -44 13 -5 4 -15 7 -22 8 -6 1 -19 7
-30 13 -14 8 -15 11 -3 12 8 1 20 2 25 4 6 1 15 3 20 4 6 1 -1 7 -15 13 -14 6
-29 10 -33 9 -13 -2 -47 19 -47 30 0 7 8 8 18 4 13 -5 14 -4 5 6 -10 10 -16 9
-29 -2 -16 -12 -17 -12 -11 3 4 12 2 18 -8 18 -8 0 -15 8 -15 18 0 14 -2 15
-10 2 -5 -8 -5 -19 0 -25 4 -6 2 -15 -5 -22 -10 -9 -22 -5 -54 19 -37 27 -58
49 -29 32 7 -4 8 -3 4 4 -4 7 -14 12 -22 12 -8 0 -18 8 -21 18 -4 9 -20 40
-37 67 -41 66 -87 162 -85 178 3 19 -13 77 -22 83 -5 3 -9 14 -9 25 0 10 -4
19 -9 19 -5 0 -11 13 -14 29 -3 15 -17 53 -31 84 -15 31 -26 61 -26 68 0 6
-13 37 -29 68 -30 60 -46 137 -33 159 8 12 59 11 80 -2 6 -3 16 -22 22 -41 6
-20 17 -35 23 -34 7 1 25 -3 40 -9 16 -7 33 -12 38 -12 12 0 11 17 -2 25 -6 4
-8 13 -5 21 3 9 -1 14 -12 14 -15 0 -15 2 -2 10 8 5 11 10 7 10 -11 0 12 40
23 40 6 0 10 -7 10 -15 0 -8 9 -24 20 -35 19 -19 22 -19 50 -5 25 13 30 22 30
50 0 35 0 35 -47 35 -33 0 -61 -9 -99 -30 -48 -27 -53 -28 -66 -13 -9 12 -9
15 0 9 8 -5 12 -1 12 12 0 10 8 26 17 34 23 19 99 38 155 38 56 0 75 12 52 31
-12 9 -48 15 -113 16 -53 1 -105 3 -116 5 -11 1 -29 -3 -41 -9 -18 -10 -21 -8
-31 18 -6 16 -7 27 -2 23 14 -8 11 3 -7 20 -8 9 -11 16 -5 16 6 0 11 5 11 11
0 5 -3 8 -7 6 -12 -8 -11 197 1 205 14 9 65 2 83 -13 31 -26 313 -14 313 13 0
5 5 8 11 8 5 0 8 -4 4 -9 -3 -6 8 -5 27 1 18 5 54 14 80 18 26 5 56 14 67 20
12 6 21 8 21 4 0 -3 6 -2 13 3 6 6 35 16 62 23 28 7 55 16 60 20 6 4 26 10 46
14 21 4 42 12 48 20 18 22 86 39 125 32 26 -5 40 -15 51 -37 9 -16 13 -34 10
-39 -3 -6 -3 -10 2 -10 12 0 44 -60 37 -71 -3 -5 0 -9 5 -9 6 0 10 -3 9 -7 -1
-5 4 -28 11 -53 7 -25 13 -47 14 -50 0 -3 10 -36 23 -73 13 -37 26 -102 30
-145 3 -42 8 -80 10 -83 2 -3 -2 -14 -9 -23 -12 -16 -13 -118 -4 -431 2 -55
-1 -109 -6 -120 -7 -13 -6 -20 2 -23 6 -2 8 -9 4 -15 -4 -7 -9 -20 -10 -30 -2
-10 -11 -30 -20 -45 -52 -85 -87 -135 -109 -157 -13 -13 -24 -29 -24 -36 0 -6
-7 -8 -16 -5 -8 3 -13 2 -10 -3 3 -4 -6 -14 -19 -21 -14 -7 -32 -24 -41 -37
-14 -23 -14 -24 3 -15 10 5 23 8 29 5 27 -9 158 152 203 250 28 62 81 146 81
130 0 -7 4 -13 10 -13 6 0 9 26 7 63 -2 54 0 62 16 59 22 -4 33 25 18 50 -10
15 -7 23 14 44 26 26 29 26 118 21 91 -6 142 -12 142 -17 0 -1 12 -3 28 -4 15
-1 27 2 27 6 0 11 152 -2 168 -14 17 -14 15 -93 -2 -107 -16 -13 -42 -88 -52
-147 l-6 -40 56 -21 56 -21 0 979 0 979 -1250 0 -1250 0 0 -1250z m1510 566
c0 -2 -11 -6 -25 -8 -13 -3 -22 -1 -19 3 5 9 44 13 44 5z m-525 -124 c17 -12
18 -14 2 -8 -10 3 -25 6 -32 6 -7 0 -15 7 -18 14 -7 17 16 11 48 -12z m1023
-307 c1 -115 0 -219 -3 -231 -6 -28 -50 -47 -75 -34 -16 9 -19 22 -19 93 0 46
-3 90 -7 100 -7 20 16 147 28 147 4 0 8 5 8 11 0 7 7 17 15 23 9 7 18 36 21
75 6 52 9 60 18 45 7 -12 12 -99 14 -229z m-1713 -75 c3 -5 1 -10 -4 -10 -6 0
-11 5 -11 10 0 6 2 10 4 10 3 0 8 -4 11 -10z m645 -54 c0 -3 -4 -8 -10 -11 -5
-3 -10 -1 -10 4 0 6 5 11 10 11 6 0 10 -2 10 -4z m-391 -56 c11 -24 11 -24 -3
-6 -9 11 -16 24 -16 30 0 12 5 7 19 -24z m55 -80 c14 -22 26 -45 26 -53 0 -7
9 -30 20 -52 11 -22 20 -47 20 -56 0 -9 9 -28 20 -42 14 -17 17 -28 9 -33 -18
-11 -64 30 -67 61 -2 16 -17 68 -33 118 -38 117 -38 121 5 57z m-369 -420 c-9
-14 -25 5 -25 30 0 12 3 12 16 -2 9 -9 13 -21 9 -28z m1625 -14 c0 -3 -4 -8
-10 -11 -5 -3 -10 -1 -10 4 0 6 5 11 10 11 6 0 10 -2 10 -4z m-1628 -61 c-6
-12 -11 -14 -16 -6 -4 6 -2 11 4 11 7 0 9 7 5 18 -5 13 -3 14 5 5 8 -7 9 -17
2 -28z m-4 -119 c-7 -8 -15 -12 -17 -11 -5 6 10 25 20 25 5 0 4 -6 -3 -14z
m19 -66 c-4 -27 -23 -45 -31 -31 -4 6 -1 11 7 11 10 0 13 7 10 20 -3 11 0 20
6 20 6 0 9 -9 8 -20z m-20 -143 c-3 -7 -10 -11 -16 -9 -6 1 -11 -6 -12 -15 0
-15 -2 -15 -8 2 -11 25 -8 30 19 32 13 1 20 -3 17 -10z m20 -49 c1 -13 7 -24
13 -26 16 -6 12 -32 -5 -32 -8 0 -14 3 -14 8 4 24 -3 42 -16 42 -16 0 -20 12
-8 23 13 14 29 6 30 -15z m-77 8 c0 -3 -4 -8 -10 -11 -5 -3 -10 -1 -10 4 0 6
5 11 10 11 6 0 10 -2 10 -4z m5 -36 c3 -5 2 -10 -4 -10 -5 0 -13 5 -16 10 -3
6 -2 10 4 10 5 0 13 -4 16 -10z m-45 -94 c0 -11 -19 -15 -25 -6 -3 5 1 10 9
10 9 0 16 -2 16 -4z m0 -80 c0 -11 -19 -15 -25 -6 -3 5 1 10 9 10 9 0 16 -2
16 -4z"/>
<path d="M1961 1313 c7 -10 15 -20 16 -22 2 -2 3 3 3 11 0 9 -7 19 -16 22 -15
6 -15 4 -3 -11z"/>
<path d="M630 1000 c0 -5 5 -10 11 -10 5 0 7 5 4 10 -3 6 -8 10 -11 10 -2 0
-4 -4 -4 -10z"/>
<path d="M1640 1550 c-8 -5 -32 -7 -52 -3 -30 4 -38 2 -38 -10 0 -9 8 -18 18
-20 9 -3 2 -5 -16 -6 -18 0 -31 3 -28 8 3 4 -33 -2 -81 -14 -62 -16 -91 -29
-104 -46 -37 -48 -17 -54 66 -19 43 19 121 28 165 20 24 -4 68 -6 97 -3 56 6
58 13 15 58 -10 12 -21 26 -23 33 -3 7 -9 8 -19 2z"/>
<path d="M1365 1375 c-39 -32 -24 -32 23 0 20 14 30 25 22 25 -8 0 -28 -11
-45 -25z"/>
<path d="M1424 1381 c-18 -11 -35 -25 -40 -32 -4 -7 3 -5 17 4 30 22 39 21 39
-2 0 -24 18 -37 52 -39 30 -2 54 28 44 54 -10 26 13 14 39 -21 15 -19 24 -39
19 -46 -5 -8 -3 -9 5 -5 7 5 16 19 22 33 5 13 13 21 19 18 15 -9 32 4 23 18
-4 7 -8 15 -9 20 -1 4 -2 10 -3 13 0 4 -8 1 -16 -6 -10 -8 -19 -9 -27 -3 -7 5
-44 11 -83 12 -54 1 -77 -3 -101 -18z m66 -21 c0 -5 -5 -10 -11 -10 -5 0 -7 5
-4 10 3 6 8 10 11 10 2 0 4 -4 4 -10z"/>
<path d="M1045 1344 c47 -35 74 -66 78 -92 l4 -27 2 29 c1 22 -9 38 -41 68
-23 21 -46 38 -52 38 -6 0 -2 -7 9 -16z"/>
<path d="M1566 1321 c-4 -5 -2 -12 3 -15 5 -4 12 -2 15 3 4 5 2 12 -3 15 -5 4
-12 2 -15 -3z"/>
<path d="M1040 1250 c0 -5 7 -7 15 -4 8 4 15 8 15 10 0 2 -7 4 -15 4 -8 0 -15
-4 -15 -10z"/>
<path d="M1142 1094 c-5 -11 -12 -28 -13 -39 -2 -11 -8 -23 -14 -27 -15 -11
-12 -92 4 -112 8 -9 16 -14 19 -11 3 2 -1 11 -8 20 -24 29 -1 27 46 -4 25 -18
48 -30 50 -29 1 2 -10 12 -26 23 -34 23 -67 75 -53 84 6 3 11 13 11 21 1 8 3
27 6 41 6 36 -9 58 -22 33z"/>
<path d="M1314 1075 c5 -11 13 -32 18 -47 8 -22 14 -26 26 -19 11 6 21 3 33
-13 15 -17 18 -18 19 -5 0 20 -37 69 -52 69 -6 0 -20 8 -31 18 -20 16 -20 16
-13 -3z"/>
<path d="M1320 939 c0 -18 2 -19 15 -9 8 7 15 16 15 21 0 5 -7 9 -15 9 -9 0
-15 -9 -15 -21z"/>
<path d="M1283 925 c-3 -9 -3 -18 -1 -21 3 -3 8 4 11 16 6 23 -1 27 -10 5z"/>
<path d="M790 861 c0 -6 4 -13 10 -16 6 -3 7 1 4 9 -7 18 -14 21 -14 7z"/>
<path d="M2170 806 c0 -10 -5 -16 -13 -13 -15 6 -31 -11 -35 -38 -2 -11 -12
-35 -23 -53 -21 -36 -21 -36 49 -51 36 -8 42 -6 44 8 0 9 2 21 2 28 1 6 4 15
8 18 4 4 4 21 1 38 -5 24 -3 28 8 22 11 -7 12 -6 2 7 -7 8 -11 18 -8 21 3 4 2
5 -2 2 -3 -3 -12 3 -19 13 -13 16 -13 16 -14 -2z"/>
<path d="M1035 770 c-3 -5 -1 -10 4 -10 6 0 11 5 11 10 0 6 -2 10 -4 10 -3 0
-8 -4 -11 -10z"/>
<path d="M1393 753 c-13 -2 -23 -8 -23 -13 0 -4 -51 -7 -112 -7 -88 1 -120 -3
-145 -16 -40 -21 -40 -28 -8 -63 33 -35 117 -50 144 -25 9 9 11 12 4 7 -8 -5
-13 -4 -13 2 0 14 36 25 51 17 5 -4 19 1 29 10 22 20 67 14 72 -10 5 -25 87
23 115 68 l23 37 -57 -1 c-32 -1 -68 -4 -80 -6z"/>
<path d="M1288 602 c12 -8 72 -4 72 4 0 2 -19 4 -42 4 -26 0 -38 -4 -30 -8z"/>
<path d="M1587 395 c-8 -8 -17 -11 -21 -8 -3 4 -6 1 -6 -5 0 -18 15 -14 35 8
21 23 14 27 -8 5z"/>
<path d="M1350 356 c0 -9 30 -14 35 -6 4 6 -3 10 -14 10 -12 0 -21 -2 -21 -4z"/>
<path d="M1400 356 c0 -10 28 -13 41 -5 10 6 7 9 -13 9 -16 0 -28 -2 -28 -4z"/>
<path d="M1010 333 c0 -18 30 -91 57 -138 21 -36 23 -37 17 -10 -9 36 -73 165
-74 148z"/>
</g>
</svg>
